<?xml version="1.0" encoding="UTF-8"?>
<svg width="60px" height="65px" viewBox="0 0 60 65" version="1.1" xmlns="http://www.w3.org/2000/svg" xmlns:xlink="http://www.w3.org/1999/xlink">
    <!-- Generator: Sketch 52.1 (67048) - http://www.bohemiancoding.com/sketch -->
    <title>2754577-avatar-business-face-people</title>
    <desc>Created with Sketch.</desc>
    <g id="Symbols" stroke="none" stroke-width="1" fill="none" fill-rule="evenodd">
        <g id="left-bar" transform="translate(-90.000000, -43.000000)">
            <g id="avatar">
                <g transform="translate(90.000000, 43.000000)">
                    <g id="Group-3">
                        <g id="2754577-avatar-business-face-people" transform="translate(0.000000, 0.000000)">
                            <path d="M46.3055556,57.5277778 C46.3055556,57.5277778 46.4166667,58.3333333 46.5833333,59.6527778 C50.125,57.3055556 53.125,54.2222222 55.3888889,50.625 C54.9861111,49.8055556 54.5694444,49.1527778 54.0972222,48.7361111 C52.5694444,47.3888889 48.8472222,44.4583333 35.9722222,38.8055556 L30.9027778,38.7777778 L30.9027778,38.3472222 L26.2638889,38.3472222 L26.2638889,38.8055556 L24.0416667,38.8194444 C11.1666667,44.4583333 7.44444444,47.3888889 5.91666667,48.75 C5.44444444,49.1666667 5.01388889,49.8194444 4.625,50.6388889 C6.88888889,54.2361111 9.88888889,57.3194444 13.4305556,59.6666667 C13.5972222,58.3472222 13.7083333,57.5416667 13.7083333,57.5416667 C13.7083333,57.5416667 13.7083333,58.4027778 13.7083333,59.8472222 C18.4027778,62.8888889 24,64.6666667 30,64.6666667 C36.0138889,64.6666667 41.6111111,62.9027778 46.2916667,59.8472222 C46.3055556,58.3888889 46.3055556,57.5277778 46.3055556,57.5277778 Z" id="Path" fill="#B9DAF3"></path>
                            <path d="M5.91666667,48.7361111 C7.44444444,47.3888889 11.1666667,44.4583333 24.0416667,38.8055556 L26.2638889,38.7916667 L26.2638889,38.3333333 L30.9027778,38.3333333 L30.9027778,38.7638889 L35.9722222,38.7916667 C48.8472222,44.4305556 52.5694444,47.3611111 54.0972222,48.7222222 C54.5694444,49.1388889 55,49.7916667 55.3888889,50.6111111 C58.2916667,46 59.9722222,40.5416667 59.9722222,34.6805556 C59.9583333,18.1388889 46.5416667,4.72222222 30,4.72222222 C13.4583333,4.72222222 0.0416666667,18.1388889 0.0416666667,34.6944444 C0.0416666667,40.5416667 1.72222222,46.0138889 4.625,50.625 C5.01388889,49.8055556 5.44444444,49.1527778 5.91666667,48.7361111 Z" id="Path" fill="#D1E6F7"></path>
                            <path d="M30,21.7083333 L30,44.8612519 C32.2638889,44.875 34.5277778,43.8611111 36.25,41.7638889 L36.25,27.4861111 C36.25,23.625 33.125,21.7083333 30,21.7083333 Z" id="Path" fill="#EDD9B4"></path>
                            <path d="M23.75,27.4861111 L23.75,41.75 C25.4722222,43.7777778 27.7361111,44.8333333 30,44.8472222 L30,21.7083333 C26.875,21.7083333 23.75,23.625 23.75,27.4861111 Z" id="Path" fill="#DCC5A1"></path>
                            <path d="M36.25,27.4861111 L36.25,37.0416667 C33.8888889,38.7638889 31.6111111,39.7361111 30,39.7361111 C28.3888889,39.7361111 26.1111111,38.7638889 23.75,37.0416667 L23.75,27.4861111 C23.75,19.7777778 36.25,19.7777778 36.25,27.4861111" id="Path" fill="#BC9F82"></path>
                            <polygon id="Path" fill="#89BCE5" points="36.25 38.9305556 41.1805556 41.1805556 34.9027778 49.8888889 30 44.8611111"></polygon>
                            <polygon id="Path" fill="#89BCE5" points="23.75 38.9305556 18.8194444 41.1805556 25.0972222 49.8888889 30 44.8611111"></polygon>
                            <path d="M30.1527778,33.125 C30.1944444,33.125 30.2222222,33.125 30.2638889,33.125 C33.3194444,32.9861111 30.7777778,36.5555556 34.6666667,34.4722222 C38.5555556,32.3888889 38.3888889,26.3194444 36.4444444,26.1805556 C34.5138889,26.0416667 32.9166667,27.4166667 30.1666667,27.4305556 L30.1388889,27.4305556 C30.0972222,27.4305556 30.0555556,27.4305556 30.0138889,27.4305556 L30.0138889,33.125 C30.0555556,33.125 30.0972222,33.125 30.1527778,33.125 Z" id="Path" fill="#EDD9B4"></path>
                            <path d="M30.0111111,37.3611111 C30.0277778,37.3611111 30.0277778,37.3611111 30.0444444,37.3611111 C30.0277778,37.3611111 30.0277778,37.3611111 30.0111111,37.3611111 Z" id="Path" fill="#FDDECC"></path>
                            <path d="M29.3888889,37.3083333 C29.3388889,37.2916667 29.2722222,37.2916667 29.2222222,37.275 C29.2722222,37.2916667 29.3388889,37.2916667 29.3888889,37.3083333 Z" id="Path" fill="#FDDECC"></path>
                            <path d="M24.0416667,26.3194444 C22.0972222,26.4583333 21.5138889,32.25 25.4027778,34.3333333 C29.1666667,36.3472222 27.3333333,33.1944444 30,33.125 L30,27.4305556 C27.3055556,27.3888889 25.9583333,26.1805556 24.0416667,26.3194444 Z" id="Path" fill="#DCC5A1"></path>
                            <path d="M29.5555556,37.3305556 C29.7083333,37.3472222 29.8611111,37.3638889 30,37.3638889 C29.8611111,37.3638889 29.7083333,37.3472222 29.5555556,37.3305556 Z" id="Path" fill="#FDDECC"></path>
                            <g id="Group" transform="translate(12.777778, 1.805556)">
                                <path d="M33.4722222,16.7083333 C32.8888889,16.5138889 32.2361111,16.7777778 31.6388889,17.3333333 C32.1944444,9.51388889 30.0277778,0.0555555556 17.2222222,0.0555555556 L17.2222222,24.5694444 C17.25,24.5694444 17.2916667,24.5694444 17.3333333,24.5694444 L17.375,24.5694444 C19.5416667,24.5416667 23.2638889,22.4027778 24.7638889,24.0972222 C27,26.6527778 25.2777778,31.4444444 23.3611111,32.7361111 C26,30.9027778 28.4722222,28.6111111 29.2916667,27.4166667 C29.5972222,26.9722222 30.1805556,25.4305556 30.7083333,23.2777778 C30.8472222,23.4166667 31.0277778,23.5277778 31.2083333,23.5972222 C32.3055556,23.9583333 33.7083333,22.7083333 34.3333333,20.8055556 C34.9583333,18.9027778 34.5694444,17.0694444 33.4722222,16.7083333 Z" id="Path" fill="#EDD9B4"></path>
                                <path d="M2.77777778,17.0555556 C2.27777778,16.6944444 1.76388889,16.5555556 1.29166667,16.7083333 C0.194444444,17.0694444 -0.194444444,18.9027778 0.430555556,20.8055556 C1.05555556,22.7083333 2.45833333,23.9583333 3.55555556,23.5972222 C3.63888889,23.5694444 3.72222222,23.5277778 3.79166667,23.4861111 C4.30555556,25.5277778 4.86111111,27 5.15277778,27.4166667 C6,28.6666667 8.63888889,31.0833333 11.3888889,32.9444444 C8.75,30.7222222 7.69444444,26.4166667 10.0833333,24.1944444 C11.6805556,22.7083333 15.0555556,24.5 17.2222222,24.5555556 L17.2222222,0.0555555556 C4.56944444,0.0555555556 2.29166667,9.29166667 2.77777778,17.0555556 Z" id="Path" fill="#DCC5A1"></path>
                            </g>
                            <path d="M29.5555556,37.3361111 C29.4861111,37.3194444 29.4305556,37.3194444 29.3611111,37.3027778 C29.4305556,37.3194444 29.5,37.3194444 29.5555556,37.3361111 Z" id="Path" fill="#0B0C14"></path>
                            <path d="M30.1527778,37.3597222 C30.1666667,37.3597222 30.1805556,37.3597222 30.1805556,37.3597222 C30.125,37.3597222 30.0694444,37.3763889 30.0138889,37.3763889 C30.0694444,37.3597222 30.1111111,37.3597222 30.1527778,37.3597222 Z" id="Path" fill="#0B0C14"></path>
                            <path d="M36.1263889,34.5833333 C36.1430556,34.5833333 36.1430556,34.5666667 36.1597222,34.55 C36.1263889,34.5666667 36.1097222,34.5833333 36.0763889,34.6166667 C36.0930556,34.6166667 36.1097222,34.6 36.1263889,34.5833333 Z" id="Path" fill="#0B0C14"></path>
                            <path d="M37.5416667,25.9166667 C36.0416667,24.2083333 32.3194444,26.3472222 30.1527778,26.3888889 L30.1111111,26.3888889 C30.0833333,26.3888889 30.0416667,26.3888889 30,26.3888889 C27.8333333,26.3333333 24.4583333,24.5277778 22.8611111,26.0277778 C20.4722222,28.25 21.5277778,32.5555556 24.1666667,34.7777778 C25.9583333,36 27.7916667,36.9861111 29.2222222,37.2777778 C29.2638889,37.2916667 29.3194444,37.3055556 29.3611111,37.3055556 C29.4305556,37.3194444 29.4861111,37.3194444 29.5555556,37.3333333 C29.7083333,37.3472222 29.8611111,37.3611111 30,37.3611111 C30.0138889,37.3611111 30.0138889,37.3611111 30.0277778,37.3611111 C30.0833333,37.3611111 30.1388889,37.3611111 30.1944444,37.3472222 C31.7222222,37.25 33.9166667,36.0138889 36.0694444,34.6111111 C36.0972222,34.5972222 36.1111111,34.5833333 36.1388889,34.5555556 C38.0555556,33.2638889 39.7777778,28.4722222 37.5416667,25.9166667 Z M34.6666667,34.4722222 C30.7777778,36.5555556 33.3194444,32.9861111 30.2638889,33.125 C30.2222222,33.125 30.1944444,33.125 30.1527778,33.125 C30.0972222,33.125 30.0555556,33.125 30,33.125 C27.3333333,33.1944444 29.1666667,36.3472222 25.4027778,34.3333333 C21.5138889,32.25 22.0972222,26.4583333 24.0416667,26.3194444 C25.9583333,26.1805556 27.3055556,27.3888889 30,27.4305556 C30.0416667,27.4305556 30.0833333,27.4305556 30.125,27.4305556 L30.1527778,27.4305556 C32.9166667,27.4166667 34.5,26.0416667 36.4305556,26.1805556 C38.375,26.3194444 38.5416667,32.3888889 34.6666667,34.4722222 Z" id="Shape" fill="#000000" fill-rule="nonzero"></path>
                            <path d="M30.0277778,9.06944444 C23.5416667,9.09722222 17.4722222,8.80555556 16.2361111,23.0277778 C13.0833333,11.9027778 17.3888889,-0.0277777778 29.7916667,0.0694444444 C42.625,0.180555556 47.2638889,11.9861111 43.7222222,23.0416667 C40.8333333,7.77777778 35.9027778,9.04166667 30.0277778,9.06944444" id="Path" fill="#000000"></path>
                            <g id="Group" transform="translate(23.055556, 18.750000)">
                                <path d="M1.48611111,0.0833333333 C2.25,0.0833333333 2.875,0.791666667 2.875,1.65277778 C2.875,2.52777778 2.25,3.22222222 1.48611111,3.22222222 C0.722222222,3.22222222 0.0972222222,2.51388889 0.0972222222,1.65277778 C0.0972222222,0.791666667 0.708333333,0.0833333333 1.48611111,0.0833333333" id="Path" fill="#342214"></path>
                                <path d="M12.7361111,0.0833333333 C13.5,0.0833333333 14.125,0.791666667 14.125,1.65277778 C14.125,2.52777778 13.5,3.22222222 12.7361111,3.22222222 C11.9722222,3.22222222 11.3472222,2.51388889 11.3472222,1.65277778 C11.3472222,0.791666667 11.9722222,0.0833333333 12.7361111,0.0833333333" id="Path" fill="#342214"></path>
                                <path d="M4.25,10.0277778 C4.73611111,11.1111111 5.83333333,11.875 7.11111111,11.875 C8.38888889,11.875 9.47222222,11.1111111 9.97222222,10.0277778 L4.25,10.0277778 Z" id="Path" fill="#FFFFFF"></path>
                            </g>
                            <path d="M13.7232639,59.8333333 C13.7232639,58.3888889 13.7232639,57.5277778 13.7232639,57.5277778 C13.7065972,57.5555556 13.7065972,58.4027778 13.7232639,59.8333333 C13.7232639,59.8333333 13.7232639,59.8333333 13.7232639,59.8333333 Z" id="Path" fill="#89BCE5"></path>
                            <path d="M46.2916667,59.8333333 C46.3888889,59.7777778 46.4861111,59.7083333 46.5694444,59.6527778 C46.4027778,58.3333333 46.2916667,57.5277778 46.2916667,57.5277778 C46.2916667,57.5277778 46.3055556,58.3888889 46.2916667,59.8333333 Z" id="Path" fill="#89BCE5"></path>
                            <path d="M13.6944444,57.5277778 C13.6944444,57.5277778 13.5833333,58.3194444 13.4166667,59.6527778 C13.5833333,58.3472222 13.6944444,57.5555556 13.6944444,57.5277778 Z" id="Path" fill="#89BCE5"></path>
                            <path d="M13.7083333,59.8333333 C13.7083333,58.4027778 13.7083333,57.5555556 13.7083333,57.5277778 C13.7083333,57.5416667 13.5972222,58.3472222 13.4305556,59.6527778 C13.5138889,59.7083333 13.6111111,59.7777778 13.7083333,59.8333333 Z" id="Path" fill="#89BCE5"></path>
                        </g>
                    </g>
                </g>
            </g>
        </g>
    </g>
</svg>